<svg width="20" height="19" viewBox="0 0 20 19" fill="none" xmlns="http://www.w3.org/2000/svg">
<g id="vuesax/bold/add-circle">
<g id="add-circle">
<path id="Vector" d="M9.99984 1.58334C5.40817 1.58334 1.6665 5.13792 1.6665 9.5C1.6665 13.8621 5.40817 17.4167 9.99984 17.4167C14.5915 17.4167 18.3332 13.8621 18.3332 9.5C18.3332 5.13792 14.5915 1.58334 9.99984 1.58334ZM13.3332 10.0938H10.6248V12.6667C10.6248 12.9913 10.3415 13.2604 9.99984 13.2604C9.65817 13.2604 9.37484 12.9913 9.37484 12.6667V10.0938H6.6665C6.32484 10.0938 6.0415 9.82459 6.0415 9.5C6.0415 9.17542 6.32484 8.90625 6.6665 8.90625H9.37484V6.33334C9.37484 6.00875 9.65817 5.73959 9.99984 5.73959C10.3415 5.73959 10.6248 6.00875 10.6248 6.33334V8.90625H13.3332C13.6748 8.90625 13.9582 9.17542 13.9582 9.5C13.9582 9.82459 13.6748 10.0938 13.3332 10.0938Z" fill="#292D32"/>
</g>
</g>
</svg>
