<svg width="16" height="16" viewBox="0 0 16 16" fill="none" xmlns="http://www.w3.org/2000/svg">
<g id="vuesax/bold/edit-2">
<g id="edit-2">
<path id="Vector" d="M14 14.6667H2C1.72667 14.6667 1.5 14.44 1.5 14.1667C1.5 13.8933 1.72667 13.6667 2 13.6667H14C14.2733 13.6667 14.5 13.8933 14.5 14.1667C14.5 14.44 14.2733 14.6667 14 14.6667Z" fill="currentColor"/>
<path id="Vector_2" d="M12.6799 2.32C11.3866 1.02667 10.1199 0.993334 8.79322 2.32L7.98655 3.12667C7.91989 3.19333 7.89322 3.3 7.91989 3.39333C8.42655 5.16 9.83989 6.57333 11.6066 7.08C11.6332 7.08667 11.6599 7.09333 11.6866 7.09333C11.7599 7.09333 11.8266 7.06667 11.8799 7.01333L12.6799 6.20667C13.3399 5.55333 13.6599 4.92 13.6599 4.28C13.6666 3.62 13.3466 2.98 12.6799 2.32Z" fill="currentColor"/>
<path id="Vector_3" d="M10.4066 7.68667C10.2132 7.59333 10.0266 7.5 9.84655 7.39333C9.69989 7.30667 9.55989 7.21333 9.41989 7.11333C9.30655 7.04 9.17322 6.93333 9.04655 6.82667C9.03322 6.82 8.98655 6.78 8.93322 6.72667C8.71322 6.54 8.46655 6.3 8.24655 6.03333C8.22655 6.02 8.19322 5.97333 8.14655 5.91333C8.07989 5.83333 7.96655 5.7 7.86655 5.54667C7.78655 5.44667 7.69322 5.3 7.60655 5.15333C7.49989 4.97333 7.40655 4.79333 7.31322 4.60667V4.60667C7.19085 4.34444 6.84668 4.26654 6.64206 4.47116L2.89322 8.22C2.80655 8.30667 2.72655 8.47333 2.70655 8.58667L2.34655 11.14C2.27989 11.5933 2.40655 12.02 2.68655 12.3067C2.92655 12.54 3.25989 12.6667 3.61989 12.6667C3.69989 12.6667 3.77989 12.66 3.85989 12.6467L6.41989 12.2867C6.53989 12.2667 6.70655 12.1867 6.78655 12.1L10.5416 8.34497C10.7421 8.14445 10.6668 7.79942 10.4066 7.68667V7.68667Z" fill="currentColor"/>
</g>
</g>
</svg>
