<svg width="21" height="32" viewBox="0 0 21 20" xmlns="http://www.w3.org/2000/svg">
    <path d="M18.0402 4.81994L12.2802 0.789938C10.7102 -0.310062 8.30023 -0.250062 6.79023 0.919938L1.78023 4.82994C0.780234 5.60994 -0.00976562 7.20994 -0.00976562 8.46994V15.3699C-0.00976562 17.9199 2.06023 19.9999 4.61023 19.9999H15.3902C17.9402 19.9999 20.0102 17.9299 20.0102 15.3799V8.59994C20.0102 7.24994 19.1402 5.58994 18.0402 4.81994ZM10.7502 15.9999C10.7502 16.4099 10.4102 16.7499 10.0002 16.7499C9.59023 16.7499 9.25023 16.4099 9.25023 15.9999V12.9999C9.25023 12.5899 9.59023 12.2499 10.0002 12.2499C10.4102 12.2499 10.7502 12.5899 10.7502 12.9999V15.9999Z"/>
</svg>