<svg width="167" height="48" viewBox="0 0 167 48" xmlns="http://www.w3.org/2000/svg">
    <path d="M11.2696 3.67814C9.68117 3.76138 8.5283 5.11122 8.69456 6.69309L8.79491 7.64783L11.3115 7.51594C13.6279 7.39454 15.7023 9.16624 15.9447 11.4731C16.1872 13.78 14.5059 15.7485 12.1895 15.8699L9.67295 16.0018L10.1621 20.6562L12.6787 20.5243C14.9951 20.4029 17.0695 22.1746 17.312 24.4815C17.5544 26.7884 15.8731 28.7569 13.5567 28.8783L11.0402 29.0102L11.5294 33.6645L14.0459 33.5326C16.3623 33.4112 18.4367 35.1829 18.6792 37.4898C18.9216 39.7967 17.2404 41.7652 14.924 41.8866L12.4074 42.0185L12.5078 42.9732C12.674 44.5551 14.0965 45.77 15.6849 45.6867L41.5693 44.3302C43.1577 44.2469 44.3106 42.8971 44.1443 41.3152L40.3311 5.03509C40.1649 3.45322 38.7425 2.23835 37.154 2.32159L11.2696 3.67814Z"/>
    <path d="M12.2067 40.109L14.7233 39.9771C15.9807 39.9112 16.8934 38.8426 16.7618 37.5903C16.6302 36.338 15.5041 35.3762 14.2466 35.4421L11.7301 35.574L12.2067 40.109Z"/>
    <path d="M10.8395 27.1007L13.356 26.9688C14.6135 26.9029 15.5262 25.8343 15.3946 24.582C15.263 23.3296 14.1369 22.3679 12.8794 22.4338L10.3628 22.5657L10.8395 27.1007Z"/>
    <path d="M9.47225 14.0923L11.9888 13.9604C13.2463 13.8945 14.159 12.8259 14.0273 11.5736C13.8957 10.3213 12.7696 9.35952 11.5121 9.42542L8.9956 9.55731L9.47225 14.0923Z"/>
    <path d="M4.44051 12.076C4.30888 10.8237 5.22157 9.7551 6.47906 9.6892L11.5121 9.42542C12.7696 9.35952 13.8957 10.3213 14.0273 11.5736C14.159 12.8259 13.2463 13.8945 11.9888 13.9604L6.95571 14.2242C5.69822 14.2901 4.57213 13.3283 4.44051 12.076Z"/>
    <path d="M5.80774 25.0844C5.67612 23.8321 6.58881 22.7634 7.84629 22.6975L12.8794 22.4338C14.1369 22.3679 15.263 23.3296 15.3946 24.582C15.5262 25.8343 14.6135 26.9029 13.356 26.9688L8.32294 27.2326C7.06546 27.2985 5.93936 26.3367 5.80774 25.0844Z"/>
    <path d="M7.17497 38.0927C7.04335 36.8404 7.95604 35.7718 9.21352 35.7059L14.2466 35.4421C15.5041 35.3762 16.6302 36.338 16.7618 37.5903C16.8934 38.8426 15.9807 39.9112 14.7233 39.9771L9.69017 40.2409C8.43269 40.3068 7.30659 39.345 7.17497 38.0927Z"/>
    <path d="M65.28 14.86C65.28 14.3693 65.2907 14.0067 65.312 13.772C65.3547 13.516 65.4613 13.228 65.632 12.908C65.9307 12.332 66.7627 12.044 68.128 12.044C69.6213 12.044 70.5067 12.4387 70.784 13.228C70.8907 13.5907 70.944 14.1453 70.944 14.892V32.684C70.944 33.196 70.9227 33.5693 70.88 33.804C70.8587 34.0387 70.7627 34.316 70.592 34.636C70.2933 35.212 69.4613 35.5 68.096 35.5C66.6027 35.5 65.728 35.0947 65.472 34.284C65.344 33.9427 65.28 33.3987 65.28 32.652V14.86ZM88.8268 12.908C89.0401 12.5667 89.3494 12.332 89.7548 12.204C90.1601 12.076 90.6614 12.012 91.2588 12.012C91.8774 12.012 92.3681 12.0653 92.7308 12.172C93.0934 12.2787 93.3708 12.4067 93.5628 12.556C93.7548 12.7053 93.8934 12.9293 93.9788 13.228C94.1068 13.5907 94.1708 14.1453 94.1708 14.892V24.556C94.1708 27.372 93.2961 29.932 91.5468 32.236C90.6934 33.324 89.5948 34.2093 88.2508 34.892C86.9068 35.5533 85.4134 35.884 83.7708 35.884C82.1494 35.884 80.6668 35.5427 79.3228 34.86C78.0001 34.1773 76.9228 33.2813 76.0908 32.172C74.3628 29.9107 73.4988 27.3507 73.4988 24.492V14.86C73.4988 14.348 73.5094 13.9747 73.5308 13.74C73.5734 13.484 73.6801 13.196 73.8508 12.876C74.0214 12.556 74.3094 12.332 74.7148 12.204C75.1201 12.076 75.6641 12.012 76.3468 12.012C77.0294 12.012 77.5734 12.076 77.9788 12.204C78.3841 12.332 78.6614 12.556 78.8108 12.876C79.0668 13.3667 79.1948 14.0387 79.1948 14.892V24.492C79.1948 25.7933 79.5148 27.0307 80.1548 28.204C80.4748 28.8013 80.9548 29.2813 81.5948 29.644C82.2348 30.0067 82.9921 30.188 83.8668 30.188C85.4241 30.188 86.5868 29.612 87.3548 28.46C88.1228 27.308 88.5068 25.9747 88.5068 24.46V14.668C88.5068 13.836 88.6134 13.2493 88.8268 12.908ZM98.2535 12.012H116.046C116.728 12.012 117.23 12.0973 117.55 12.268C117.87 12.4173 118.083 12.6627 118.19 13.004C118.296 13.3453 118.35 13.7933 118.35 14.348C118.35 14.9027 118.296 15.3507 118.19 15.692C118.083 16.012 117.902 16.236 117.646 16.364C117.262 16.556 116.718 16.652 116.014 16.652H109.902V32.748C109.902 33.2387 109.88 33.6013 109.838 33.836C109.816 34.0707 109.72 34.348 109.55 34.668C109.4 34.9667 109.123 35.18 108.718 35.308C108.312 35.436 107.779 35.5 107.118 35.5C106.456 35.5 105.923 35.436 105.518 35.308C105.134 35.18 104.856 34.9667 104.686 34.668C104.536 34.348 104.44 34.0707 104.398 33.836C104.376 33.58 104.366 33.2067 104.366 32.716V16.652H98.2215C97.5388 16.652 97.0375 16.5773 96.7175 16.428C96.3975 16.2573 96.1842 16.0013 96.0775 15.66C95.9708 15.3187 95.9175 14.8707 95.9175 14.316C95.9175 13.7613 95.9708 13.324 96.0775 13.004C96.1842 12.6627 96.3655 12.428 96.6215 12.3C97.0055 12.108 97.5495 12.012 98.2535 12.012ZM127.224 20.428C127.352 19.2333 128.195 18.636 129.752 18.636C130.584 18.636 131.203 18.7 131.608 18.828C132.013 18.956 132.291 19.18 132.44 19.5C132.611 19.82 132.707 20.108 132.728 20.364C132.771 20.5987 132.792 20.9613 132.792 21.452V32.652C132.792 33.1427 132.771 33.516 132.728 33.772C132.707 34.0067 132.621 34.284 132.472 34.604C132.173 35.1587 131.437 35.436 130.264 35.436C129.112 35.436 128.333 35.2973 127.928 35.02C127.544 34.7213 127.32 34.2947 127.256 33.74C126.467 34.8707 125.144 35.436 123.288 35.436C121.453 35.436 119.747 34.5933 118.168 32.908C116.589 31.2227 115.8 29.2707 115.8 27.052C115.8 24.812 116.589 22.86 118.168 21.196C119.768 19.5107 121.517 18.668 123.416 18.668C124.141 18.668 124.803 18.796 125.4 19.052C125.997 19.308 126.413 19.5533 126.648 19.788C126.883 20.0013 127.075 20.2147 127.224 20.428ZM121.4 27.084C121.4 27.788 121.677 28.428 122.232 29.004C122.787 29.5587 123.459 29.836 124.248 29.836C125.037 29.836 125.688 29.548 126.2 28.972C126.733 28.396 127 27.7667 127 27.084C127 26.38 126.744 25.7293 126.232 25.132C125.741 24.5347 125.069 24.236 124.216 24.236C123.384 24.236 122.701 24.5347 122.168 25.132C121.656 25.7293 121.4 26.38 121.4 27.084ZM135.471 33.996C135.065 33.74 134.863 33.3347 134.863 32.78C134.863 32.2253 135.268 31.3827 136.079 30.252C136.313 29.8893 136.687 29.708 137.199 29.708C137.732 29.708 138.447 29.9747 139.343 30.508C140.239 31.02 141.049 31.276 141.775 31.276C143.076 31.276 143.727 31.02 143.727 30.508C143.727 30.1027 143.012 29.804 141.583 29.612C140.239 29.42 138.905 28.9187 137.583 28.108C136.964 27.724 136.452 27.1267 136.047 26.316C135.641 25.484 135.439 24.5027 135.439 23.372C135.439 20.0013 137.753 18.316 142.383 18.316C143.897 18.316 145.455 18.6787 147.055 19.404C147.801 19.7453 148.175 20.172 148.175 20.684C148.175 21.196 147.94 21.8253 147.471 22.572C147.001 23.3187 146.521 23.692 146.031 23.692C145.775 23.692 145.295 23.532 144.591 23.212C143.908 22.892 143.161 22.732 142.351 22.732C141.092 22.732 140.463 22.9667 140.463 23.436C140.463 24.076 141.188 24.492 142.639 24.684C144.047 24.8333 145.412 25.2387 146.735 25.9C147.353 26.1987 147.865 26.7213 148.271 27.468C148.697 28.1933 148.911 29.1107 148.911 30.22C148.911 31.3293 148.697 32.2787 148.271 33.068C147.865 33.836 147.289 34.412 146.543 34.796C145.177 35.4573 143.46 35.788 141.391 35.788C139.343 35.788 137.369 35.1907 135.471 33.996ZM160.919 27.052L165.175 30.572C165.708 31.02 166.039 31.3613 166.167 31.596C166.316 31.8307 166.391 32.0547 166.391 32.268C166.391 32.78 166.06 33.4733 165.399 34.348C164.673 35.244 164.033 35.692 163.479 35.692C163.009 35.692 162.359 35.3827 161.527 34.764L161.207 34.54C160.716 34.1347 159.959 33.4307 158.935 32.428C157.911 31.404 157.132 30.6787 156.599 30.252V32.716C156.599 33.2067 156.577 33.58 156.535 33.836C156.513 34.0707 156.417 34.348 156.247 34.668C155.969 35.2227 155.148 35.5 153.783 35.5C152.439 35.5 151.617 35.212 151.319 34.636C151.169 34.316 151.073 34.0387 151.031 33.804C151.009 33.548 150.999 33.1747 150.999 32.684V13.516C150.999 13.0253 151.009 12.6627 151.031 12.428C151.073 12.172 151.169 11.884 151.319 11.564C151.617 10.988 152.449 10.7 153.815 10.7C154.839 10.7 155.564 10.8813 155.991 11.244C156.353 11.5427 156.545 12.012 156.567 12.652C156.588 12.844 156.599 13.1427 156.599 13.548V23.692C156.983 23.372 157.559 22.828 158.327 22.06C159.116 21.292 159.703 20.748 160.087 20.428L160.471 20.172C161.217 19.596 161.857 19.308 162.391 19.308C162.924 19.308 163.532 19.7453 164.215 20.62C164.919 21.4733 165.271 22.1453 165.271 22.636C165.271 23.1267 164.876 23.7027 164.087 24.364L160.919 27.052Z"/>
</svg>