<svg width="20" height="20" viewBox="0 0 20 20" fill="none" xmlns="http://www.w3.org/2000/svg">
<g id="vuesax/bold/message">
<g id="message">
<path id="Vector" d="M14.1665 2.08333H5.83317C3.53317 2.08333 1.6665 3.84875 1.6665 6.02583V10.76V11.5517C1.6665 13.7287 3.53317 15.4942 5.83317 15.4942H7.08317C7.30817 15.4942 7.60817 15.6367 7.74984 15.8108L8.99984 17.3863C9.54984 18.0829 10.4498 18.0829 10.9998 17.3863L12.2498 15.8108C12.4082 15.6129 12.6582 15.4942 12.9165 15.4942H14.1665C16.4665 15.4942 18.3332 13.7287 18.3332 11.5517V6.02583C18.3332 3.84875 16.4665 2.08333 14.1665 2.08333ZM6.6665 10C6.19984 10 5.83317 9.64375 5.83317 9.20833C5.83317 8.77292 6.20817 8.41667 6.6665 8.41667C7.12484 8.41667 7.49984 8.77292 7.49984 9.20833C7.49984 9.64375 7.13317 10 6.6665 10ZM9.99984 10C9.53317 10 9.1665 9.64375 9.1665 9.20833C9.1665 8.77292 9.5415 8.41667 9.99984 8.41667C10.4582 8.41667 10.8332 8.77292 10.8332 9.20833C10.8332 9.64375 10.4665 10 9.99984 10ZM13.3332 10C12.8665 10 12.4998 9.64375 12.4998 9.20833C12.4998 8.77292 12.8748 8.41667 13.3332 8.41667C13.7915 8.41667 14.1665 8.77292 14.1665 9.20833C14.1665 9.64375 13.7998 10 13.3332 10Z" fill="#292D32"/>
</g>
</g>
</svg>
