<svg width="20" height="20" viewBox="0 0 20 20" fill="none" xmlns="http://www.w3.org/2000/svg">
<g id="vuesax/bold/more-circle">
<g id="more-circle">
<path id="Vector" d="M9.99984 2.08334C5.40817 2.08334 1.6665 5.63793 1.6665 10C1.6665 14.3621 5.40817 17.9167 9.99984 17.9167C14.5915 17.9167 18.3332 14.3621 18.3332 10C18.3332 5.63793 14.5915 2.08334 9.99984 2.08334ZM6.6665 10.7917C6.19984 10.7917 5.83317 10.4354 5.83317 10C5.83317 9.56459 6.20817 9.20834 6.6665 9.20834C7.12484 9.20834 7.49984 9.56459 7.49984 10C7.49984 10.4354 7.13317 10.7917 6.6665 10.7917ZM9.99984 10.7917C9.53317 10.7917 9.1665 10.4354 9.1665 10C9.1665 9.56459 9.5415 9.20834 9.99984 9.20834C10.4582 9.20834 10.8332 9.56459 10.8332 10C10.8332 10.4354 10.4665 10.7917 9.99984 10.7917ZM13.3332 10.7917C12.8665 10.7917 12.4998 10.4354 12.4998 10C12.4998 9.56459 12.8748 9.20834 13.3332 9.20834C13.7915 9.20834 14.1665 9.56459 14.1665 10C14.1665 10.4354 13.7998 10.7917 13.3332 10.7917Z" fill="#292D32"/>
</g>
</g>
</svg>
