<svg width="16" height="16" viewBox="0 0 16 16" fill="none" xmlns="http://www.w3.org/2000/svg">
<g id="vuesax/bold/search-normal">
<g id="search-normal">
<path id="Vector" d="M7.66665 14C11.1644 14 14 11.1645 14 7.66671C14 4.1689 11.1644 1.33337 7.66665 1.33337C4.16884 1.33337 1.33331 4.1689 1.33331 7.66671C1.33331 11.1645 4.16884 14 7.66665 14Z" fill="#292D32"/>
<path id="Vector_2" d="M14.2 14.6666C14.08 14.6666 13.96 14.62 13.8734 14.5333L12.6334 13.2933C12.4534 13.1133 12.4534 12.82 12.6334 12.6333C12.8134 12.4533 13.1067 12.4533 13.2934 12.6333L14.5334 13.8733C14.7134 14.0533 14.7134 14.3466 14.5334 14.5333C14.44 14.62 14.32 14.6666 14.2 14.6666Z" fill="#292D32"/>
</g>
</g>
</svg>
