<svg width="16" height="16" viewBox="0 0 16 16" fill="none" xmlns="http://www.w3.org/2000/svg">
<g id="vuesax/bold/tag">
<g id="tag">
<path id="Vector" d="M13.2199 5.80003L10.1999 2.78003C9.56661 2.1467 8.69328 1.8067 7.79994 1.85337L4.46661 2.01337C3.13328 2.07337 2.07328 3.13337 2.00661 4.46003L1.84661 7.79337C1.80661 8.6867 2.13994 9.56003 2.77328 10.1934L5.79328 13.2134C7.03328 14.4534 9.04661 14.4534 10.2933 13.2134L13.2199 10.2867C14.4666 9.05337 14.4666 7.04003 13.2199 5.80003ZM6.33328 8.25337C5.27328 8.25337 4.41328 7.39337 4.41328 6.33337C4.41328 5.27337 5.27328 4.41337 6.33328 4.41337C7.39328 4.41337 8.25328 5.27337 8.25328 6.33337C8.25328 7.39337 7.39328 8.25337 6.33328 8.25337Z" fill="currentColor"/>
</g>
</g>
</svg>
