<svg width="16" height="16" viewBox="0 0 16 16" fill="none" xmlns="http://www.w3.org/2000/svg">
<g id="vuesax/bold/teacher">
<path id="Vector" d="M11.22 10.4266C11.6667 10.1333 12.2534 10.4533 12.2534 10.9866V11.8466C12.2534 12.6933 11.5934 13.6 10.8 13.8666L8.67337 14.5733C8.30004 14.7 7.69337 14.7 7.3267 14.5733L5.20004 13.8666C4.40004 13.6 3.7467 12.6933 3.7467 11.8466V10.98C3.7467 10.4533 4.33337 10.1333 4.77337 10.42L6.1467 11.3133C6.67337 11.6666 7.34004 11.84 8.0067 11.84C8.67337 11.84 9.34004 11.6666 9.8667 11.3133L11.22 10.4266Z" fill="currentColor"/>
<path id="Vector_2" d="M13.32 4.30666L9.32668 1.68666C8.60668 1.21333 7.42001 1.21333 6.70001 1.68666L2.68668 4.30666C1.40001 5.14 1.40001 7.02666 2.68668 7.86666L3.75335 8.56L6.70001 10.48C7.42001 10.9533 8.60668 10.9533 9.32668 10.48L12.2533 8.56L13.1667 7.96V10C13.1667 10.2733 13.3933 10.5 13.6667 10.5C13.94 10.5 14.1667 10.2733 14.1667 10V6.72C14.4333 5.86 14.16 4.86 13.32 4.30666Z" fill="currentColor"/>
</g>
</svg>
