<svg width="16" height="16" viewBox="0 0 16 16" fill="none" xmlns="http://www.w3.org/2000/svg">
<g id="vuesax/bold/user-tick">
<g id="user-tick">
<path id="Vector" d="M7.99994 9.33333C4.65994 9.33333 1.93994 11.5733 1.93994 14.3333C1.93994 14.52 2.08661 14.6667 2.27327 14.6667H13.7266C13.9133 14.6667 14.0599 14.52 14.0599 14.3333C14.0599 11.5733 11.3399 9.33333 7.99994 9.33333Z" fill="currentColor"/>
<path id="Vector_2" d="M7.99984 1.33333C7.21317 1.33333 6.49317 1.60666 5.91984 2.06666C5.15317 2.67333 4.6665 3.61333 4.6665 4.66666C4.6665 5.29333 4.83984 5.87999 5.15317 6.37999C5.7265 7.34666 6.77984 7.99999 7.99984 7.99999C8.83984 7.99999 9.6065 7.69333 10.1932 7.16666C10.4532 6.94666 10.6798 6.67999 10.8532 6.37999C11.1598 5.87999 11.3332 5.29333 11.3332 4.66666C11.3332 2.82666 9.83984 1.33333 7.99984 1.33333ZM9.7265 4.30666L7.9465 5.94666C7.8265 6.05999 7.67317 6.11333 7.51984 6.11333C7.35984 6.11333 7.19984 6.05333 7.07984 5.93333L6.25984 5.10666C6.01317 4.85999 6.01317 4.46666 6.25984 4.21999C6.5065 3.97333 6.89984 3.97333 7.1465 4.21999L7.53984 4.61333L8.87984 3.37999C9.13317 3.14666 9.5265 3.15999 9.75984 3.41333C9.99317 3.67333 9.97984 4.07333 9.7265 4.30666Z" fill="currentColor"/>
</g>
</g>
</svg>
